<svg xmlns="http://www.w3.org/2000/svg" xmlns:xlink="http://www.w3.org/1999/xlink" width="500" zoomAndPan="magnify" viewBox="0 0 375 374.999991" height="500" preserveAspectRatio="xMidYMid meet" version="1.0"><defs><g/></defs><g fill="#ffffff" fill-opacity="1"><g transform="translate(33.169924, 213.374986)"><g><path d="M 124.046875 -20.96875 C 121.117188 -21.3125 118.171875 -21.484375 115.203125 -21.484375 C 113.898438 -21.523438 112.578125 -21.5625 111.234375 -21.59375 C 98.984375 -22.101562 86.695312 -22.234375 74.375 -21.984375 C 73.757812 -21.984375 73.253906 -21.984375 72.859375 -21.984375 C 72.191406 -22.023438 71.703125 -22.019531 71.390625 -21.96875 C 71.085938 -21.914062 70.84375 -21.75 70.65625 -21.46875 C 70.476562 -21.1875 70.265625 -20.722656 70.015625 -20.078125 C 69.847656 -19.710938 69.648438 -19.253906 69.421875 -18.703125 C 67.367188 -14.234375 65.488281 -9.691406 63.78125 -5.078125 C 62.65625 -2.085938 61.789062 0.972656 61.1875 4.109375 C 60.957031 5.085938 60.875 6.039062 60.9375 6.96875 C 61.007812 7.894531 61.425781 8.722656 62.1875 9.453125 C 62.300781 9.523438 62.34375 9.617188 62.3125 9.734375 C 62.28125 9.859375 62.207031 9.96875 62.09375 10.0625 C 61.988281 10.164062 61.875 10.234375 61.75 10.265625 C 59.9375 10.535156 58.84375 9.882812 58.46875 8.3125 C 58.257812 7.425781 58.222656 6.515625 58.359375 5.578125 C 58.359375 5.503906 58.359375 5.453125 58.359375 5.421875 C 58.492188 3.804688 58.78125 2.207031 59.21875 0.625 C 59.65625 -0.957031 60.140625 -2.539062 60.671875 -4.125 C 62.398438 -8.90625 64.304688 -13.617188 66.390625 -18.265625 C 66.492188 -18.460938 66.578125 -18.660156 66.640625 -18.859375 C 66.753906 -19.085938 66.867188 -19.328125 66.984375 -19.578125 C 67.148438 -19.910156 67.300781 -20.242188 67.4375 -20.578125 C 67.582031 -20.921875 67.640625 -21.273438 67.609375 -21.640625 C 67.441406 -21.773438 67.269531 -21.859375 67.09375 -21.890625 C 66.925781 -21.921875 66.757812 -21.921875 66.59375 -21.890625 C 66.5625 -21.890625 66.523438 -21.890625 66.484375 -21.890625 C 65.046875 -21.890625 63.597656 -21.875 62.140625 -21.84375 C 61.742188 -21.84375 61.328125 -21.84375 60.890625 -21.84375 C 60.347656 -21.8125 59.894531 -21.644531 59.53125 -21.34375 C 59.164062 -21.039062 58.8125 -20.664062 58.46875 -20.21875 C 58.03125 -19.65625 57.585938 -19.085938 57.140625 -18.515625 C 55.265625 -16.117188 53.367188 -13.742188 51.453125 -11.390625 C 48.617188 -7.960938 45.660156 -4.65625 42.578125 -1.46875 C 39.492188 1.71875 36.222656 4.703125 32.765625 7.484375 C 28.421875 11.066406 23.8125 14.21875 18.9375 16.9375 C 11.46875 20.945312 3.640625 22.84375 -4.546875 22.625 C -12.253906 22.457031 -19.207031 20.378906 -25.40625 16.390625 C -27.144531 15.265625 -28.691406 13.914062 -30.046875 12.34375 C -30.941406 11.226562 -31.65625 10.023438 -32.1875 8.734375 C -32.71875 7.441406 -32.984375 6.035156 -32.984375 4.515625 C -32.898438 2.703125 -32.476562 1.019531 -31.71875 -0.53125 C -30.96875 -2.09375 -29.921875 -3.507812 -28.578125 -4.78125 C -26.722656 -6.5625 -24.6875 -8.070312 -22.46875 -9.3125 C -20.3125 -10.570312 -18.085938 -11.671875 -15.796875 -12.609375 C -13.515625 -13.546875 -11.207031 -14.382812 -8.875 -15.125 C -5.113281 -16.332031 -1.316406 -17.347656 2.515625 -18.171875 C 6.359375 -19.003906 10.21875 -19.707031 14.09375 -20.28125 C 23.269531 -21.550781 32.472656 -22.394531 41.703125 -22.8125 C 46.410156 -23.101562 51.109375 -23.25 55.796875 -23.25 C 57.078125 -23.21875 58.066406 -23.757812 58.765625 -24.875 C 60.003906 -26.625 61.253906 -28.375 62.515625 -30.125 C 64.453125 -32.820312 66.363281 -35.5625 68.25 -38.34375 C 77 -51.414062 85.382812 -64.695312 93.40625 -78.1875 C 94.070312 -79.332031 94.726562 -80.492188 95.375 -81.671875 C 95.6875 -82.273438 96.007812 -82.878906 96.34375 -83.484375 C 96.738281 -84.265625 97.375 -84.703125 98.25 -84.796875 C 98.71875 -84.796875 99.0625 -84.660156 99.28125 -84.390625 C 99.507812 -84.128906 99.539062 -83.773438 99.375 -83.328125 C 99.207031 -82.960938 99.015625 -82.609375 98.796875 -82.265625 C 97.492188 -79.941406 96.335938 -77.585938 95.328125 -75.203125 C 94.941406 -74.359375 94.566406 -73.53125 94.203125 -72.71875 C 90.671875 -65.0625 87.125 -57.390625 83.5625 -49.703125 C 80.832031 -43.785156 78.082031 -37.851562 75.3125 -31.90625 C 74.519531 -30.144531 73.734375 -28.390625 72.953125 -26.640625 C 72.785156 -26.273438 72.617188 -25.925781 72.453125 -25.59375 C 72.421875 -25.507812 72.390625 -25.425781 72.359375 -25.34375 C 72.253906 -25.09375 72.164062 -24.847656 72.09375 -24.609375 C 72.019531 -24.367188 72.039062 -24.132812 72.15625 -23.90625 C 72.382812 -23.738281 72.648438 -23.644531 72.953125 -23.625 C 73.265625 -23.613281 73.550781 -23.609375 73.8125 -23.609375 C 74.019531 -23.640625 74.207031 -23.65625 74.375 -23.65625 C 75.644531 -23.625 76.925781 -23.625 78.21875 -23.65625 C 79.957031 -23.65625 81.707031 -23.640625 83.46875 -23.609375 C 93.007812 -23.441406 102.5625 -23.238281 112.125 -23 C 115.257812 -22.9375 118.375 -22.804688 121.46875 -22.609375 C 121.75 -22.578125 122.039062 -22.5625 122.34375 -22.5625 C 122.507812 -22.5625 122.691406 -22.5625 122.890625 -22.5625 C 123.285156 -22.5625 123.671875 -22.523438 124.046875 -22.453125 C 124.421875 -22.390625 124.78125 -22.253906 125.125 -22.046875 C 125.1875 -22.003906 125.226562 -21.929688 125.25 -21.828125 C 125.28125 -21.734375 125.28125 -21.65625 125.25 -21.59375 C 125.25 -21.488281 125.207031 -21.394531 125.125 -21.3125 C 125.039062 -21.226562 124.96875 -21.171875 124.90625 -21.140625 C 124.632812 -21.023438 124.347656 -20.96875 124.046875 -20.96875 Z M 55.625 -20.71875 C 55.738281 -20.9375 55.75 -21.128906 55.65625 -21.296875 C 55.570312 -21.460938 55.429688 -21.546875 55.234375 -21.546875 C 54.929688 -21.578125 54.613281 -21.578125 54.28125 -21.546875 C 54.101562 -21.546875 53.929688 -21.546875 53.765625 -21.546875 C 42.210938 -21.410156 30.65625 -20.613281 19.09375 -19.15625 C 14.675781 -18.625 10.273438 -17.921875 5.890625 -17.046875 C 1.515625 -16.179688 -2.816406 -15.085938 -7.109375 -13.765625 C -9.410156 -13.066406 -11.675781 -12.257812 -13.90625 -11.34375 C -16.144531 -10.4375 -18.328125 -9.351562 -20.453125 -8.09375 C -22.671875 -6.863281 -24.6875 -5.351562 -26.5 -3.5625 C -28.632812 -1.375 -29.832031 0.953125 -30.09375 3.421875 C -30.363281 5.898438 -29.703125 8.285156 -28.109375 10.578125 C -26.929688 12.179688 -25.523438 13.554688 -23.890625 14.703125 C -17.921875 18.941406 -10.816406 21.101562 -2.578125 21.1875 C -0.460938 21.1875 1.960938 20.910156 4.703125 20.359375 C 7.429688 19.785156 10.0625 18.953125 12.59375 17.859375 C 15.132812 16.765625 17.597656 15.476562 19.984375 14 C 25.878906 10.375 31.335938 6.148438 36.359375 1.328125 C 39.828125 -1.929688 43.097656 -5.359375 46.171875 -8.953125 C 49.242188 -12.554688 52.226562 -16.226562 55.125 -19.96875 C 55.289062 -20.238281 55.457031 -20.488281 55.625 -20.71875 Z M 69.671875 -25.46875 C 71.890625 -30.519531 74.175781 -35.554688 76.53125 -40.578125 C 76.644531 -40.847656 77.003906 -41.632812 77.609375 -42.9375 C 78.210938 -44.25 78.90625 -45.773438 79.6875 -47.515625 C 80.476562 -49.253906 81.203125 -50.894531 81.859375 -52.4375 C 82.515625 -53.976562 82.976562 -55.132812 83.25 -55.90625 C 83.519531 -56.6875 83.4375 -56.765625 83 -56.140625 C 82.894531 -55.992188 82.8125 -55.851562 82.75 -55.71875 C 82.382812 -55.1875 82.035156 -54.648438 81.703125 -54.109375 C 78.898438 -49.765625 76.082031 -45.425781 73.25 -41.09375 C 70.425781 -36.769531 67.5 -32.503906 64.46875 -28.296875 C 64.175781 -27.898438 63.875 -27.476562 63.5625 -27.03125 C 62.988281 -26.238281 62.414062 -25.4375 61.84375 -24.625 C 61.613281 -24.289062 61.546875 -24.007812 61.640625 -23.78125 C 61.742188 -23.5625 61.984375 -23.453125 62.359375 -23.453125 C 62.960938 -23.453125 63.566406 -23.46875 64.171875 -23.5 C 65.117188 -23.570312 66.054688 -23.609375 66.984375 -23.609375 C 67.703125 -23.578125 68.257812 -23.726562 68.65625 -24.0625 C 69.0625 -24.40625 69.398438 -24.875 69.671875 -25.46875 Z M 69.671875 -25.46875 "/></g></g></g><g fill="#ffffff" fill-opacity="1"><g transform="translate(105.90685, 213.374986)"><g><path d="M 11.015625 -14.078125 C 10.878906 -13.023438 10.378906 -12.335938 9.515625 -12.015625 C 8.660156 -11.703125 8.382812 -12.125 8.6875 -13.28125 C 8.988281 -14.445312 8.460938 -14.742188 7.109375 -14.171875 C 5.765625 -13.597656 4.65625 -12.875 3.78125 -12 C 2.4375 -10.625 1.242188 -9.140625 0.203125 -7.546875 C 0.0976562 -7.410156 0.015625 -7.296875 -0.046875 -7.203125 C -0.347656 -6.765625 -0.65625 -6.34375 -0.96875 -5.9375 C -1.164062 -5.664062 -1.394531 -5.492188 -1.65625 -5.421875 C -1.925781 -5.359375 -2.203125 -5.347656 -2.484375 -5.390625 C -2.742188 -5.421875 -2.941406 -5.519531 -3.078125 -5.6875 C -3.210938 -5.851562 -3.226562 -6.050781 -3.125 -6.28125 C -2.957031 -6.695312 -2.757812 -7.117188 -2.53125 -7.546875 C -1.144531 -10.109375 0.253906 -12.671875 1.671875 -15.234375 C 1.703125 -15.265625 1.71875 -15.296875 1.71875 -15.328125 C 1.914062 -15.722656 2.15625 -16.09375 2.4375 -16.4375 C 2.738281 -16.769531 3.085938 -16.90625 3.484375 -16.84375 C 3.878906 -16.78125 4.148438 -16.546875 4.296875 -16.140625 C 4.460938 -15.597656 4.601562 -15.289062 4.71875 -15.21875 C 4.84375 -15.15625 5.117188 -15.207031 5.546875 -15.375 C 6.472656 -15.707031 7.367188 -15.941406 8.234375 -16.078125 C 9.109375 -16.222656 9.820312 -16.191406 10.375 -15.984375 C 10.9375 -15.773438 11.148438 -15.140625 11.015625 -14.078125 Z M 11.015625 -14.078125 "/></g></g></g><g fill="#ffffff" fill-opacity="1"><g transform="translate(117.379551, 213.374986)"><g><path d="M 11.109375 -11.640625 C 8.691406 -10.734375 6.945312 -10 5.875 -9.4375 C 5.09375 -9.050781 4.644531 -8.726562 4.53125 -8.46875 C 4.414062 -8.21875 4.503906 -7.757812 4.796875 -7.09375 C 4.796875 -7.0625 4.816406 -7.015625 4.859375 -6.953125 C 5.203125 -6.140625 5.40625 -5.296875 5.46875 -4.421875 C 5.570312 -2.671875 4.070312 -1.441406 0.96875 -0.734375 C -2.125 -0.0234375 -4.191406 0 -5.234375 -0.65625 C -6.285156 -1.320312 -6.609375 -2.160156 -6.203125 -3.171875 C -5.796875 -4.179688 -4.742188 -5.203125 -3.046875 -6.234375 C -1.347656 -7.273438 -0.210938 -8.023438 0.359375 -8.484375 C 0.929688 -8.953125 1.101562 -9.46875 0.875 -10.03125 C 0.789062 -10.226562 0.707031 -10.425781 0.625 -10.625 C 0.425781 -11.101562 0.21875 -11.59375 0 -12.09375 C -0.394531 -13.007812 -0.566406 -13.910156 -0.515625 -14.796875 C -0.460938 -15.691406 -0.132812 -16.441406 0.46875 -17.046875 C 1.070312 -17.648438 2.007812 -17.972656 3.28125 -18.015625 C 4 -18.046875 4.640625 -17.945312 5.203125 -17.71875 C 5.773438 -17.5 6.226562 -17.09375 6.5625 -16.5 C 6.84375 -16.082031 6.757812 -15.707031 6.3125 -15.375 C 6.019531 -15.144531 5.707031 -15.113281 5.375 -15.28125 C 5.15625 -15.375 4.945312 -15.503906 4.75 -15.671875 C 4.75 -15.722656 4.75 -15.75 4.75 -15.75 C 4.65625 -15.800781 4.570312 -15.859375 4.5 -15.921875 C 4.40625 -16.066406 4.304688 -16.175781 4.203125 -16.25 C 3.804688 -16.539062 3.40625 -16.628906 3 -16.515625 C 2.59375 -16.398438 2.289062 -16.085938 2.09375 -15.578125 C 1.945312 -15.179688 1.875 -14.773438 1.875 -14.359375 C 1.90625 -13.859375 2.019531 -13.367188 2.21875 -12.890625 C 2.363281 -12.609375 2.488281 -12.34375 2.59375 -12.09375 C 2.851562 -11.414062 3.066406 -10.953125 3.234375 -10.703125 C 3.398438 -10.453125 3.601562 -10.34375 3.84375 -10.375 C 4.082031 -10.414062 6.25 -11.195312 10.34375 -12.71875 C 11.238281 -13.007812 11.492188 -12.648438 11.109375 -11.640625 Z M 1.171875 -2.875 C 2.242188 -3.238281 2.695312 -3.957031 2.53125 -5.03125 C 2.53125 -5.101562 2.515625 -5.1875 2.484375 -5.28125 C 2.421875 -5.863281 2.296875 -6.3125 2.109375 -6.625 C 1.929688 -6.9375 1.519531 -6.925781 0.875 -6.59375 C -0.71875 -5.6875 -2.1875 -4.628906 -3.53125 -3.421875 C -3.625 -3.316406 -3.707031 -3.21875 -3.78125 -3.125 C -3.78125 -3.125 -3.796875 -3.097656 -3.828125 -3.046875 C -3.921875 -2.929688 -3.9375 -2.796875 -3.875 -2.640625 C -3.8125 -2.484375 -3.675781 -2.40625 -3.46875 -2.40625 C -1.894531 -2.164062 -0.347656 -2.320312 1.171875 -2.875 Z M 1.171875 -2.875 "/></g></g></g><g fill="#ffffff" fill-opacity="1"><g transform="translate(127.544365, 213.374986)"><g><path d="M 16.640625 -11.6875 C 17.003906 -11.488281 17.035156 -10.988281 16.734375 -10.1875 C 16.285156 -9.601562 15.804688 -9.054688 15.296875 -8.546875 C 14.796875 -8.046875 14.25 -7.597656 13.65625 -7.203125 C 13.613281 -7.203125 13.59375 -7.1875 13.59375 -7.15625 C 13.1875 -6.882812 12.765625 -6.648438 12.328125 -6.453125 C 8.671875 -5.128906 6.800781 -5.898438 6.71875 -8.765625 C 5.238281 -7.484375 4.242188 -6.695312 3.734375 -6.40625 C 2.523438 -5.6875 1.21875 -5.363281 -0.1875 -5.4375 C -1.226562 -5.5 -1.9375 -5.816406 -2.3125 -6.390625 C -2.6875 -6.960938 -2.648438 -7.738281 -2.203125 -8.71875 C -1.523438 -10.257812 -0.566406 -11.640625 0.671875 -12.859375 C 2.117188 -14.203125 3.734375 -15.28125 5.515625 -16.09375 C 6.460938 -16.5625 7.453125 -16.742188 8.484375 -16.640625 C 9.523438 -16.578125 10.15625 -15.988281 10.375 -14.875 C 10.46875 -14.53125 10.382812 -14.226562 10.125 -13.96875 C 9.78125 -13.664062 9.390625 -13.597656 8.953125 -13.765625 C 8.921875 -13.765625 8.878906 -13.769531 8.828125 -13.78125 C 8.773438 -13.800781 8.734375 -13.828125 8.703125 -13.859375 C 8.253906 -14.472656 7.800781 -14.726562 7.34375 -14.625 C 6.894531 -14.53125 6.421875 -14.328125 5.921875 -14.015625 C 3.566406 -12.640625 1.816406 -10.722656 0.671875 -8.265625 C 0.609375 -8.148438 0.566406 -8.03125 0.546875 -7.90625 C 0.535156 -7.78125 0.578125 -7.675781 0.671875 -7.59375 C 0.941406 -7.5 1.242188 -7.515625 1.578125 -7.640625 C 1.921875 -7.773438 2.257812 -7.96875 2.59375 -8.21875 C 2.925781 -8.476562 3.207031 -8.691406 3.4375 -8.859375 C 3.46875 -8.898438 3.484375 -8.921875 3.484375 -8.921875 C 4.597656 -9.859375 5.691406 -10.816406 6.765625 -11.796875 C 7.242188 -12.296875 7.832031 -12.578125 8.53125 -12.640625 C 9.539062 -12.640625 9.960938 -12.191406 9.796875 -11.296875 C 9.703125 -10.953125 9.601562 -10.613281 9.5 -10.28125 C 9.101562 -8.820312 9.085938 -7.96875 9.453125 -7.71875 C 9.816406 -7.46875 10.378906 -7.46875 11.140625 -7.71875 C 11.898438 -7.96875 12.65625 -8.445312 13.40625 -9.15625 C 14.164062 -9.875 14.804688 -10.523438 15.328125 -11.109375 C 15.847656 -11.703125 16.285156 -11.894531 16.640625 -11.6875 Z M 16.640625 -11.6875 "/></g></g></g><g fill="#ffffff" fill-opacity="1"><g transform="translate(142.757166, 213.374986)"><g><path d="M 11.109375 -10.953125 C 11.609375 -11.453125 12.023438 -11.734375 12.359375 -11.796875 C 12.703125 -11.859375 12.921875 -11.804688 13.015625 -11.640625 C 13.117188 -11.472656 13.054688 -11.242188 12.828125 -10.953125 C 11.484375 -9.328125 9.976562 -7.925781 8.3125 -6.75 C 6.644531 -5.570312 4.925781 -4.890625 3.15625 -4.703125 C 1.382812 -4.515625 0.316406 -5.476562 -0.046875 -7.59375 C -0.316406 -9.6875 0.953125 -13.953125 3.765625 -20.390625 C 6.578125 -26.835938 8.800781 -32.117188 10.4375 -36.234375 C 10.582031 -36.597656 10.789062 -36.921875 11.0625 -37.203125 C 11.425781 -37.566406 11.863281 -37.648438 12.375 -37.453125 C 12.539062 -37.378906 12.707031 -37.253906 12.875 -37.078125 C 13.039062 -36.910156 13.09375 -36.613281 13.03125 -36.1875 C 5.800781 -19.019531 2.300781 -9.6875 2.53125 -8.1875 C 2.757812 -6.6875 3.722656 -6.316406 5.421875 -7.078125 C 7.128906 -7.835938 8.445312 -8.609375 9.375 -9.390625 C 10.300781 -10.179688 10.878906 -10.703125 11.109375 -10.953125 Z M 11.109375 -10.953125 "/></g></g></g><g fill="#ffffff" fill-opacity="1"><g transform="translate(154.206922, 213.374986)"><g><path d="M 16.640625 -11.6875 C 17.003906 -11.488281 17.035156 -10.988281 16.734375 -10.1875 C 16.285156 -9.601562 15.804688 -9.054688 15.296875 -8.546875 C 14.796875 -8.046875 14.25 -7.597656 13.65625 -7.203125 C 13.613281 -7.203125 13.59375 -7.1875 13.59375 -7.15625 C 13.1875 -6.882812 12.765625 -6.648438 12.328125 -6.453125 C 8.671875 -5.128906 6.800781 -5.898438 6.71875 -8.765625 C 5.238281 -7.484375 4.242188 -6.695312 3.734375 -6.40625 C 2.523438 -5.6875 1.21875 -5.363281 -0.1875 -5.4375 C -1.226562 -5.5 -1.9375 -5.816406 -2.3125 -6.390625 C -2.6875 -6.960938 -2.648438 -7.738281 -2.203125 -8.71875 C -1.523438 -10.257812 -0.566406 -11.640625 0.671875 -12.859375 C 2.117188 -14.203125 3.734375 -15.28125 5.515625 -16.09375 C 6.460938 -16.5625 7.453125 -16.742188 8.484375 -16.640625 C 9.523438 -16.578125 10.15625 -15.988281 10.375 -14.875 C 10.46875 -14.53125 10.382812 -14.226562 10.125 -13.96875 C 9.78125 -13.664062 9.390625 -13.597656 8.953125 -13.765625 C 8.921875 -13.765625 8.878906 -13.769531 8.828125 -13.78125 C 8.773438 -13.800781 8.734375 -13.828125 8.703125 -13.859375 C 8.253906 -14.472656 7.800781 -14.726562 7.34375 -14.625 C 6.894531 -14.53125 6.421875 -14.328125 5.921875 -14.015625 C 3.566406 -12.640625 1.816406 -10.722656 0.671875 -8.265625 C 0.609375 -8.148438 0.566406 -8.03125 0.546875 -7.90625 C 0.535156 -7.78125 0.578125 -7.675781 0.671875 -7.59375 C 0.941406 -7.5 1.242188 -7.515625 1.578125 -7.640625 C 1.921875 -7.773438 2.257812 -7.96875 2.59375 -8.21875 C 2.925781 -8.476562 3.207031 -8.691406 3.4375 -8.859375 C 3.46875 -8.898438 3.484375 -8.921875 3.484375 -8.921875 C 4.597656 -9.859375 5.691406 -10.816406 6.765625 -11.796875 C 7.242188 -12.296875 7.832031 -12.578125 8.53125 -12.640625 C 9.539062 -12.640625 9.960938 -12.191406 9.796875 -11.296875 C 9.703125 -10.953125 9.601562 -10.613281 9.5 -10.28125 C 9.101562 -8.820312 9.085938 -7.96875 9.453125 -7.71875 C 9.816406 -7.46875 10.378906 -7.46875 11.140625 -7.71875 C 11.898438 -7.96875 12.65625 -8.445312 13.40625 -9.15625 C 14.164062 -9.875 14.804688 -10.523438 15.328125 -11.109375 C 15.847656 -11.703125 16.285156 -11.894531 16.640625 -11.6875 Z M 16.640625 -11.6875 "/></g></g></g><g fill="#ffffff" fill-opacity="1"><g transform="translate(169.419724, 213.374986)"><g><path d="M 18.171875 -11.453125 C 18.421875 -11.148438 18.113281 -10.59375 17.25 -9.78125 C 16.394531 -8.96875 15.484375 -8.285156 14.515625 -7.734375 C 13.554688 -7.179688 12.441406 -6.628906 11.171875 -6.078125 C 10.335938 -5.710938 9.441406 -5.585938 8.484375 -5.703125 C 7.535156 -5.828125 7.0625 -6.398438 7.0625 -7.421875 C 7.0625 -8.453125 7.300781 -9.472656 7.78125 -10.484375 C 8.25 -11.523438 8.347656 -12.0625 8.078125 -12.09375 C 7.816406 -12.125 7.265625 -11.875 6.421875 -11.34375 C 4.234375 -9.90625 2.203125 -8.257812 0.328125 -6.40625 C -0.179688 -5.789062 -0.828125 -5.453125 -1.609375 -5.390625 C -2.003906 -5.390625 -2.3125 -5.515625 -2.53125 -5.765625 C -2.757812 -6.023438 -2.785156 -6.300781 -2.609375 -6.59375 C -1.265625 -9.082031 0.09375 -11.539062 1.46875 -13.96875 C 1.769531 -14.476562 2.226562 -14.796875 2.84375 -14.921875 C 3.101562 -14.960938 3.34375 -14.878906 3.5625 -14.671875 C 3.789062 -14.460938 3.90625 -14.226562 3.90625 -13.96875 C 3.875 -13.726562 3.773438 -13.441406 3.609375 -13.109375 C 3.523438 -12.910156 3.445312 -12.71875 3.375 -12.53125 C 3.3125 -12.34375 3.289062 -12.1875 3.3125 -12.0625 C 3.332031 -11.945312 3.429688 -11.910156 3.609375 -11.953125 C 3.835938 -12.078125 4.066406 -12.207031 4.296875 -12.34375 C 4.867188 -12.6875 5.425781 -13.007812 5.96875 -13.3125 C 6.4375 -13.582031 6.929688 -13.820312 7.453125 -14.03125 C 7.972656 -14.25 8.519531 -14.398438 9.09375 -14.484375 C 10.007812 -14.546875 10.65625 -14.335938 11.03125 -13.859375 C 11.414062 -13.390625 11.460938 -12.734375 11.171875 -11.890625 C 10.867188 -11.117188 10.550781 -10.359375 10.21875 -9.609375 C 9.800781 -8.910156 9.726562 -8.375 10 -8 C 10.28125 -7.632812 11.5625 -8.054688 13.84375 -9.265625 L 15.5625 -10.28125 C 17.1875 -11.320312 18.054688 -11.710938 18.171875 -11.453125 Z M 18.171875 -11.453125 "/></g></g></g><g fill="#ffffff" fill-opacity="1"><g transform="translate(186.238704, 213.374986)"><g/></g></g><g fill="#ffffff" fill-opacity="1"><g transform="translate(203.585428, 213.374986)"><g><path d="M 100.71875 -55.375 C 100.613281 -55.101562 100.507812 -54.828125 100.40625 -54.546875 C 99.332031 -51.765625 98.175781 -49.023438 96.9375 -46.328125 C 90.539062 -33.035156 83.671875 -20.175781 76.328125 -7.75 C 73.941406 -3.75 71.5 0.1875 69 4.0625 C 66.507812 7.9375 64.003906 11.789062 61.484375 15.625 C 60.890625 16.53125 60.285156 17.4375 59.671875 18.34375 C 59.640625 18.414062 59.609375 18.46875 59.578125 18.5 C 59.441406 18.769531 59.28125 19 59.09375 19.1875 C 58.90625 19.375 58.660156 19.46875 58.359375 19.46875 C 58.222656 19.46875 58.078125 19.429688 57.921875 19.359375 C 57.765625 19.285156 57.644531 19.195312 57.5625 19.09375 C 57.476562 19 57.421875 18.847656 57.390625 18.640625 C 57.359375 18.441406 57.375 18.28125 57.4375 18.15625 C 57.851562 17.269531 58.3125 16.425781 58.8125 15.625 C 59.945312 13.78125 61.085938 11.929688 62.234375 10.078125 C 64.390625 6.628906 66.507812 3.175781 68.59375 -0.28125 C 73.21875 -7.988281 77.628906 -15.859375 81.828125 -23.890625 C 86.035156 -31.921875 90.144531 -40.035156 94.15625 -48.234375 C 95.769531 -51.398438 97.09375 -54.789062 98.125 -58.40625 C 98.34375 -59.03125 98.507812 -59.675781 98.625 -60.34375 C 98.738281 -61.019531 98.796875 -61.71875 98.796875 -62.4375 C 98.691406 -63.988281 98.035156 -64.664062 96.828125 -64.46875 C 95.753906 -64.25 94.742188 -63.910156 93.796875 -63.453125 C 91.546875 -62.367188 89.328125 -61.171875 87.140625 -59.859375 C 75.390625 -52.722656 64.6875 -43.867188 55.03125 -33.296875 C 54.894531 -33.128906 54.742188 -32.960938 54.578125 -32.796875 C 51.242188 -29.171875 47.929688 -25.515625 44.640625 -21.828125 C 41.359375 -18.140625 38.175781 -14.34375 35.09375 -10.4375 C 34.445312 -9.625 33.769531 -8.867188 33.0625 -8.171875 C 32.320312 -7.390625 31.429688 -7.082031 30.390625 -7.25 C 29.941406 -7.3125 29.578125 -7.53125 29.296875 -7.90625 C 29.015625 -8.28125 28.90625 -8.71875 28.96875 -9.21875 C 29.175781 -10.601562 29.476562 -11.9375 29.875 -13.21875 C 31.113281 -17.289062 32.429688 -21.304688 33.828125 -25.265625 C 34.023438 -25.878906 34.207031 -26.46875 34.375 -27.03125 C 34.738281 -28.519531 35.257812 -29.890625 35.9375 -31.140625 C 35.9375 -31.171875 35.921875 -31.1875 35.890625 -31.1875 C 35.722656 -31.28125 35.554688 -31.351562 35.390625 -31.40625 C 35.222656 -31.457031 35.054688 -31.398438 34.890625 -31.234375 C 34.273438 -30.554688 33.679688 -29.851562 33.109375 -29.125 C 28.460938 -22.820312 23.859375 -16.460938 19.296875 -10.046875 C 14.742188 -3.640625 10.289062 2.875 5.9375 9.5 C 5.570312 10.144531 5.164062 10.671875 4.71875 11.078125 C 4.269531 11.484375 3.671875 11.613281 2.921875 11.46875 C 2.578125 11.382812 2.3125 11.179688 2.125 10.859375 C 1.945312 10.535156 1.910156 10.222656 2.015625 9.921875 C 2.410156 9.015625 2.847656 8.15625 3.328125 7.34375 C 4.671875 5.019531 6.003906 2.695312 7.328125 0.375 C 9.972656 -4.238281 12.59375 -8.867188 15.1875 -13.515625 C 19.226562 -20.648438 22.832031 -28.15625 26 -36.03125 C 27.238281 -39.0625 28.25 -42.242188 29.03125 -45.578125 C 29.457031 -47.347656 29.640625 -49.195312 29.578125 -51.125 C 29.378906 -54.21875 28.351562 -56.429688 26.5 -57.765625 C 24.65625 -59.097656 22.222656 -59.726562 19.203125 -59.65625 C 16.191406 -59.582031 12.847656 -58.960938 9.171875 -57.796875 C 5.503906 -56.640625 1.742188 -55.101562 -2.109375 -53.1875 C -5.960938 -51.28125 -9.679688 -49.171875 -13.265625 -46.859375 C -16.847656 -44.546875 -20.035156 -42.203125 -22.828125 -39.828125 C -25.617188 -37.460938 -27.796875 -35.238281 -29.359375 -33.15625 C -30.992188 -30.863281 -32.382812 -28.34375 -33.53125 -25.59375 C -34.113281 -24.269531 -34.445312 -22.835938 -34.53125 -21.296875 C -34.5625 -20.992188 -34.710938 -20.765625 -34.984375 -20.609375 C -35.265625 -20.453125 -35.578125 -20.40625 -35.921875 -20.46875 C -36.453125 -20.632812 -36.785156 -21.054688 -36.921875 -21.734375 C -37.015625 -22.617188 -36.945312 -23.429688 -36.71875 -24.171875 C -36.21875 -26.015625 -35.546875 -27.765625 -34.703125 -29.421875 C -33.148438 -32.316406 -30.796875 -35.269531 -27.640625 -38.28125 C -24.492188 -41.289062 -20.820312 -44.175781 -16.625 -46.9375 C -12.4375 -49.695312 -8.0625 -52.160156 -3.5 -54.328125 C 1.050781 -56.492188 5.503906 -58.175781 9.859375 -59.375 C 14.222656 -60.582031 18.148438 -61.125 21.640625 -61 C 25.140625 -60.875 27.898438 -59.910156 29.921875 -58.109375 C 31.941406 -56.316406 32.921875 -53.484375 32.859375 -49.609375 C 32.753906 -47.117188 32.363281 -44.75 31.6875 -42.5 C 30.707031 -39.195312 29.578125 -36.003906 28.296875 -32.921875 C 27.023438 -29.835938 25.671875 -26.820312 24.234375 -23.875 C 23.785156 -22.945312 23.6875 -22.492188 23.9375 -22.515625 C 24.195312 -22.546875 24.578125 -22.894531 25.078125 -23.5625 C 26.898438 -25.976562 28.722656 -28.367188 30.546875 -30.734375 C 31.785156 -32.304688 33.046875 -33.847656 34.328125 -35.359375 C 34.492188 -35.578125 34.664062 -35.785156 34.84375 -35.984375 C 35.570312 -36.890625 36.457031 -37.492188 37.5 -37.796875 C 38.28125 -37.960938 38.9375 -37.785156 39.46875 -37.265625 C 40.007812 -36.742188 40.195312 -35.960938 40.03125 -34.921875 C 40 -34.816406 39.96875 -34.710938 39.9375 -34.609375 C 39.65625 -33.265625 39.332031 -31.957031 38.96875 -30.6875 C 37.988281 -27.582031 36.976562 -24.5 35.9375 -21.4375 C 35.4375 -19.863281 34.929688 -18.265625 34.421875 -16.640625 C 34.316406 -16.410156 34.164062 -15.988281 33.96875 -15.375 C 33.769531 -14.84375 33.578125 -14.316406 33.390625 -13.796875 C 33.203125 -13.273438 33.054688 -12.875 32.953125 -12.59375 C 33.085938 -12.707031 34.335938 -14.109375 36.703125 -16.796875 C 39.898438 -20.472656 43.6875 -24.773438 48.0625 -29.703125 C 52.4375 -34.628906 55.867188 -38.390625 58.359375 -40.984375 C 62.960938 -45.617188 67.816406 -49.835938 72.921875 -53.640625 C 78.023438 -57.441406 83.316406 -60.878906 88.796875 -63.953125 C 90.140625 -64.660156 91.519531 -65.296875 92.9375 -65.859375 C 93.25 -65.972656 93.550781 -66.097656 93.84375 -66.234375 C 95.1875 -66.765625 96.613281 -66.960938 98.125 -66.828125 C 101.03125 -66.554688 102.363281 -64.722656 102.125 -61.328125 C 101.957031 -59.210938 101.488281 -57.226562 100.71875 -55.375 Z M 35.78125 -31.328125 C 35.851562 -31.265625 35.90625 -31.21875 35.9375 -31.1875 C 35.9375 -31.1875 35.9375 -31.171875 35.9375 -31.140625 C 35.96875 -31.140625 35.984375 -31.15625 35.984375 -31.1875 C 35.921875 -31.21875 35.851562 -31.265625 35.78125 -31.328125 Z M 35.78125 -31.328125 "/></g></g></g><g fill="#ffffff" fill-opacity="1"><g transform="translate(290.06665, 213.374986)"><g><path d="M 16.640625 -11.6875 C 17.003906 -11.488281 17.035156 -10.988281 16.734375 -10.1875 C 16.285156 -9.601562 15.804688 -9.054688 15.296875 -8.546875 C 14.796875 -8.046875 14.25 -7.597656 13.65625 -7.203125 C 13.613281 -7.203125 13.59375 -7.1875 13.59375 -7.15625 C 13.1875 -6.882812 12.765625 -6.648438 12.328125 -6.453125 C 8.671875 -5.128906 6.800781 -5.898438 6.71875 -8.765625 C 5.238281 -7.484375 4.242188 -6.695312 3.734375 -6.40625 C 2.523438 -5.6875 1.21875 -5.363281 -0.1875 -5.4375 C -1.226562 -5.5 -1.9375 -5.816406 -2.3125 -6.390625 C -2.6875 -6.960938 -2.648438 -7.738281 -2.203125 -8.71875 C -1.523438 -10.257812 -0.566406 -11.640625 0.671875 -12.859375 C 2.117188 -14.203125 3.734375 -15.28125 5.515625 -16.09375 C 6.460938 -16.5625 7.453125 -16.742188 8.484375 -16.640625 C 9.523438 -16.578125 10.15625 -15.988281 10.375 -14.875 C 10.46875 -14.53125 10.382812 -14.226562 10.125 -13.96875 C 9.78125 -13.664062 9.390625 -13.597656 8.953125 -13.765625 C 8.921875 -13.765625 8.878906 -13.769531 8.828125 -13.78125 C 8.773438 -13.800781 8.734375 -13.828125 8.703125 -13.859375 C 8.253906 -14.472656 7.800781 -14.726562 7.34375 -14.625 C 6.894531 -14.53125 6.421875 -14.328125 5.921875 -14.015625 C 3.566406 -12.640625 1.816406 -10.722656 0.671875 -8.265625 C 0.609375 -8.148438 0.566406 -8.03125 0.546875 -7.90625 C 0.535156 -7.78125 0.578125 -7.675781 0.671875 -7.59375 C 0.941406 -7.5 1.242188 -7.515625 1.578125 -7.640625 C 1.921875 -7.773438 2.257812 -7.96875 2.59375 -8.21875 C 2.925781 -8.476562 3.207031 -8.691406 3.4375 -8.859375 C 3.46875 -8.898438 3.484375 -8.921875 3.484375 -8.921875 C 4.597656 -9.859375 5.691406 -10.816406 6.765625 -11.796875 C 7.242188 -12.296875 7.832031 -12.578125 8.53125 -12.640625 C 9.539062 -12.640625 9.960938 -12.191406 9.796875 -11.296875 C 9.703125 -10.953125 9.601562 -10.613281 9.5 -10.28125 C 9.101562 -8.820312 9.085938 -7.96875 9.453125 -7.71875 C 9.816406 -7.46875 10.378906 -7.46875 11.140625 -7.71875 C 11.898438 -7.96875 12.65625 -8.445312 13.40625 -9.15625 C 14.164062 -9.875 14.804688 -10.523438 15.328125 -11.109375 C 15.847656 -11.703125 16.285156 -11.894531 16.640625 -11.6875 Z M 16.640625 -11.6875 "/></g></g></g><g fill="#ffffff" fill-opacity="1"><g transform="translate(305.279463, 213.374986)"><g><path d="M 11.109375 -10.953125 C 11.609375 -11.453125 12.023438 -11.734375 12.359375 -11.796875 C 12.703125 -11.859375 12.921875 -11.804688 13.015625 -11.640625 C 13.117188 -11.472656 13.054688 -11.242188 12.828125 -10.953125 C 11.484375 -9.328125 9.976562 -7.925781 8.3125 -6.75 C 6.644531 -5.570312 4.925781 -4.890625 3.15625 -4.703125 C 1.382812 -4.515625 0.316406 -5.476562 -0.046875 -7.59375 C -0.316406 -9.6875 0.953125 -13.953125 3.765625 -20.390625 C 6.578125 -26.835938 8.800781 -32.117188 10.4375 -36.234375 C 10.582031 -36.597656 10.789062 -36.921875 11.0625 -37.203125 C 11.425781 -37.566406 11.863281 -37.648438 12.375 -37.453125 C 12.539062 -37.378906 12.707031 -37.253906 12.875 -37.078125 C 13.039062 -36.910156 13.09375 -36.613281 13.03125 -36.1875 C 5.800781 -19.019531 2.300781 -9.6875 2.53125 -8.1875 C 2.757812 -6.6875 3.722656 -6.316406 5.421875 -7.078125 C 7.128906 -7.835938 8.445312 -8.609375 9.375 -9.390625 C 10.300781 -10.179688 10.878906 -10.703125 11.109375 -10.953125 Z M 11.109375 -10.953125 "/></g></g></g><g fill="#ffffff" fill-opacity="1"><g transform="translate(316.729231, 213.374986)"><g><path d="M 9.109375 -9.671875 C 8.296875 -8.703125 7.332031 -7.8125 6.21875 -7 C 5.101562 -6.1875 3.84375 -5.640625 2.4375 -5.359375 C 1.03125 -5.078125 -0.0625 -5.179688 -0.84375 -5.671875 C -1.625 -6.160156 -1.78125 -7.242188 -1.3125 -8.921875 C -0.695312 -10.671875 0.144531 -12.332031 1.21875 -13.90625 C 1.457031 -14.238281 1.804688 -14.476562 2.265625 -14.625 C 2.609375 -14.695312 2.90625 -14.632812 3.15625 -14.4375 C 3.40625 -14.25 3.5 -14.007812 3.4375 -13.71875 C 3.207031 -13.164062 2.953125 -12.613281 2.671875 -12.0625 C 2.398438 -11.519531 2.222656 -11.164062 2.140625 -11 C 1.597656 -10.019531 1.222656 -8.992188 1.015625 -7.921875 C 1.015625 -7.304688 1.832031 -7.265625 3.46875 -7.796875 C 5.101562 -8.335938 6.691406 -9.320312 8.234375 -10.75 C 9.785156 -12.175781 10.523438 -12.59375 10.453125 -12 C 10.378906 -11.414062 9.929688 -10.640625 9.109375 -9.671875 Z M 5.125 -17.34375 C 5.039062 -17.289062 4.878906 -17.21875 4.640625 -17.125 C 4.410156 -17.039062 4.160156 -16.976562 3.890625 -16.9375 C 3.617188 -16.90625 3.40625 -16.953125 3.25 -17.078125 C 3.101562 -17.203125 3.097656 -17.445312 3.234375 -17.8125 C 3.484375 -18.445312 3.738281 -19.003906 4 -19.484375 C 4.269531 -19.972656 4.617188 -20.507812 5.046875 -21.09375 C 5.328125 -21.351562 5.625 -21.492188 5.9375 -21.515625 C 6.257812 -21.535156 6.523438 -21.445312 6.734375 -21.25 C 6.953125 -21.0625 7.019531 -20.800781 6.9375 -20.46875 C 6.59375 -19.257812 5.988281 -18.21875 5.125 -17.34375 Z M 5.125 -17.34375 "/></g></g></g><g fill="#ffffff" fill-opacity="1"><g transform="translate(325.677938, 213.374986)"><g><path d="M 17.78125 -11.703125 C 17.90625 -11.535156 17.9375 -11.367188 17.875 -11.203125 C 17.8125 -11.035156 17.695312 -10.878906 17.53125 -10.734375 C 16.476562 -9.785156 15.300781 -9.03125 14 -8.46875 C 11.769531 -7.425781 9.429688 -6.785156 6.984375 -6.546875 C 5.046875 -6.347656 3.207031 -6.632812 1.46875 -7.40625 C 0.820312 -7.695312 0.347656 -7.546875 0.046875 -6.953125 C -0.378906 -6.109375 -0.832031 -5.265625 -1.3125 -4.421875 C -1.539062 -3.953125 -1.789062 -3.460938 -2.0625 -2.953125 C -2.09375 -2.898438 -2.125 -2.832031 -2.15625 -2.75 C -2.257812 -2.582031 -2.359375 -2.421875 -2.453125 -2.265625 C -2.554688 -2.117188 -2.734375 -2.015625 -2.984375 -1.953125 C -3.109375 -1.921875 -3.238281 -1.90625 -3.375 -1.90625 C -3.507812 -1.90625 -3.628906 -1.9375 -3.734375 -2 C -3.828125 -2.070312 -3.90625 -2.171875 -3.96875 -2.296875 C -4.039062 -2.429688 -4.078125 -2.566406 -4.078125 -2.703125 C -3.972656 -3.148438 -3.820312 -3.585938 -3.625 -4.015625 C -3.195312 -4.992188 -2.773438 -5.957031 -2.359375 -6.90625 C -1.316406 -9.320312 -0.222656 -11.707031 0.921875 -14.0625 C 4.085938 -20.570312 7.097656 -27.140625 9.953125 -33.765625 C 10.179688 -34.398438 10.5 -34.972656 10.90625 -35.484375 C 11.207031 -35.847656 11.625 -35.945312 12.15625 -35.78125 C 12.707031 -35.550781 12.878906 -35.160156 12.671875 -34.609375 C 12.304688 -33.472656 11.90625 -32.332031 11.46875 -31.1875 C 9.34375 -25.9375 7.019531 -20.789062 4.5 -15.75 C 3.957031 -14.65625 3.765625 -13.96875 3.921875 -13.6875 C 4.078125 -13.40625 4.4375 -13.378906 5 -13.609375 C 5.570312 -13.847656 6.234375 -14.171875 6.984375 -14.578125 C 7.515625 -14.878906 8.046875 -15.144531 8.578125 -15.375 C 8.691406 -15.445312 8.789062 -15.5 8.875 -15.53125 C 9.519531 -15.90625 10.21875 -16.109375 10.96875 -16.140625 C 11.257812 -16.140625 11.472656 -16.007812 11.609375 -15.75 C 11.691406 -15.570312 11.695312 -15.421875 11.625 -15.296875 C 11.550781 -15.179688 11.460938 -15.09375 11.359375 -15.03125 C 10.210938 -14.351562 9.050781 -13.710938 7.875 -13.109375 C 7.300781 -12.847656 6.710938 -12.5625 6.109375 -12.25 C 5.503906 -11.976562 4.914062 -11.691406 4.34375 -11.390625 C 3.9375 -11.148438 3.566406 -10.878906 3.234375 -10.578125 C 2.453125 -9.765625 2.535156 -9.09375 3.484375 -8.5625 C 4.265625 -8.226562 5.046875 -8.050781 5.828125 -8.03125 C 6.617188 -8.019531 7.40625 -8.113281 8.1875 -8.3125 C 10.601562 -8.84375 12.878906 -9.722656 15.015625 -10.953125 C 15.179688 -11.035156 15.347656 -11.117188 15.515625 -11.203125 C 15.910156 -11.460938 16.332031 -11.691406 16.78125 -11.890625 C 16.945312 -11.960938 17.128906 -11.988281 17.328125 -11.96875 C 17.523438 -11.957031 17.675781 -11.867188 17.78125 -11.703125 Z M 17.78125 -11.703125 "/></g></g></g></svg>